<?xml version="1.0" encoding="utf-8"?>
<!-- Generator: Adobe Illustrator 17.1.0, SVG Export Plug-In . SVG Version: 6.00 Build 0)  -->
<!DOCTYPE svg PUBLIC "-//W3C//DTD SVG 1.1//EN" "http://www.w3.org/Graphics/SVG/1.1/DTD/svg11.dtd">
<svg version="1.1" id="Layer_1" xmlns="http://www.w3.org/2000/svg" xmlns:xlink="http://www.w3.org/1999/xlink" x="0px" y="0px"
	 viewBox="0 0 37 37" enable-background="new 0 0 37 37" xml:space="preserve">
<g>
	<path fill="none" stroke="#478ECF" stroke-linecap="round" stroke-linejoin="round" stroke-miterlimit="10" d="M7.9,10.9h2.8
		l1.8,5.1l1.8-5.1h2.8l-2.6,7l1.9,4.9l4.4-11.9h3.2l-6.2,15.4h-2.6l-2.7-6.5l-2.7,6.5H7.1L1,10.8h3.2l4.4,11.9l1.9-4.9L7.9,10.9z"/>
	<path fill="none" stroke="#0C0E0F" stroke-linejoin="round" stroke-miterlimit="10" d="M34.1,14.8c-0.1-0.1-0.3-0.2-0.6-0.4
		c-0.3-0.2-0.6-0.3-1-0.5c-0.4-0.2-0.8-0.3-1.2-0.4c-0.4-0.1-0.9-0.2-1.4-0.2c-0.8,0-1.4,0.2-1.8,0.5c-0.4,0.3-0.6,0.7-0.6,1.3
		c0,0.4,0.1,0.7,0.4,1c0.3,0.2,0.6,0.5,1.2,0.6c0.5,0.2,1.2,0.4,1.9,0.6c1,0.2,1.9,0.5,2.6,0.9c0.7,0.4,1.3,0.8,1.7,1.4
		c0.4,0.6,0.6,1.3,0.6,2.3c0,0.8-0.2,1.5-0.5,2.1c-0.3,0.6-0.7,1.1-1.3,1.4c-0.5,0.4-1.1,0.6-1.8,0.8c-0.7,0.2-1.4,0.2-2.2,0.2
		c-0.8,0-1.5-0.1-2.3-0.2c-0.8-0.2-1.5-0.4-2.2-0.7s-1.4-0.7-1.9-1.1l1.3-2.6c0.1,0.1,0.4,0.3,0.7,0.5c0.3,0.2,0.7,0.4,1.2,0.6
		c0.5,0.2,1,0.4,1.6,0.5c0.6,0.1,1.1,0.2,1.7,0.2c0.8,0,1.4-0.1,1.8-0.4c0.4-0.3,0.6-0.7,0.6-1.2c0-0.5-0.2-0.8-0.5-1.1
		c-0.3-0.3-0.8-0.5-1.4-0.7c-0.6-0.2-1.3-0.4-2.1-0.6c-1-0.3-1.8-0.6-2.4-0.9c-0.6-0.3-1.1-0.8-1.5-1.3c-0.3-0.5-0.5-1.2-0.5-1.9
		c0-1,0.2-1.9,0.7-2.6c0.5-0.7,1.2-1.3,2-1.6c0.9-0.4,1.8-0.5,2.8-0.5c0.7,0,1.4,0.1,2,0.2c0.6,0.2,1.2,0.4,1.8,0.6
		c0.6,0.3,1.1,0.5,1.5,0.8L34.1,14.8z"/>
</g>
<g>
	<path fill="#478ECF" d="M7.9,10.9h2.8l1.8,5.1l1.8-5.1h2.8l-2.6,7l1.9,4.9l4.4-11.9h3.2l-6.2,15.4h-2.6l-2.7-6.5l-2.7,6.5H7.1
		L1,10.8h3.2l4.4,11.9l1.9-4.9L7.9,10.9z"/>
	<path fill="#0C0E0F" d="M34.1,14.8c-0.1-0.1-0.3-0.2-0.6-0.4c-0.3-0.2-0.6-0.3-1-0.5c-0.4-0.2-0.8-0.3-1.2-0.4
		c-0.4-0.1-0.9-0.2-1.4-0.2c-0.8,0-1.4,0.2-1.8,0.5c-0.4,0.3-0.6,0.7-0.6,1.3c0,0.4,0.1,0.7,0.4,1c0.3,0.2,0.6,0.5,1.2,0.6
		c0.5,0.2,1.2,0.4,1.9,0.6c1,0.2,1.9,0.5,2.6,0.9c0.7,0.4,1.3,0.8,1.7,1.4c0.4,0.6,0.6,1.3,0.6,2.3c0,0.8-0.2,1.5-0.5,2.1
		c-0.3,0.6-0.7,1.1-1.3,1.4c-0.5,0.4-1.1,0.6-1.8,0.8c-0.7,0.2-1.4,0.2-2.2,0.2c-0.8,0-1.5-0.1-2.3-0.2c-0.8-0.2-1.5-0.4-2.2-0.7
		s-1.4-0.7-1.9-1.1l1.3-2.6c0.1,0.1,0.4,0.3,0.7,0.5c0.3,0.2,0.7,0.4,1.2,0.6c0.5,0.2,1,0.4,1.6,0.5c0.6,0.1,1.1,0.2,1.7,0.2
		c0.8,0,1.4-0.1,1.8-0.4c0.4-0.3,0.6-0.7,0.6-1.2c0-0.5-0.2-0.8-0.5-1.1c-0.3-0.3-0.8-0.5-1.4-0.7c-0.6-0.2-1.3-0.4-2.1-0.6
		c-1-0.3-1.8-0.6-2.4-0.9c-0.6-0.3-1.1-0.8-1.5-1.3c-0.3-0.5-0.5-1.2-0.5-1.9c0-1,0.2-1.9,0.7-2.6c0.5-0.7,1.2-1.3,2-1.6
		c0.9-0.4,1.8-0.5,2.8-0.5c0.7,0,1.4,0.1,2,0.2c0.6,0.2,1.2,0.4,1.8,0.6c0.6,0.3,1.1,0.5,1.5,0.8L34.1,14.8z"/>
</g>
</svg>
